<svg width="1400" height="900" viewBox="0 0 1400 900" fill="none" xmlns="http://www.w3.org/2000/svg">
  <rect width="1400" height="900" rx="48" fill="#f8fafc" />
  <rect x="60" y="60" width="1280" height="780" rx="40" fill="white" />
  <rect x="100" y="110" width="240" height="36" rx="18" fill="#0ea5e9" opacity="0.18" />
  <rect x="360" y="110" width="180" height="36" rx="18" fill="#0ea5e9" opacity="0.12" />
  <rect x="560" y="110" width="220" height="36" rx="18" fill="#2563eb" opacity="0.12" />
  <rect x="100" y="190" width="520" height="560" rx="32" fill="#ecfeff" />
  <rect x="660" y="190" width="580" height="240" rx="32" fill="#f1f5f9" />
  <rect x="660" y="470" width="580" height="280" rx="32" fill="#eff6ff" />
  <g opacity="0.85">
    <circle cx="220" cy="310" r="90" fill="#22d3ee" opacity="0.2" />
    <circle cx="380" cy="370" r="120" fill="#2563eb" opacity="0.15" />
    <circle cx="300" cy="480" r="100" fill="#38bdf8" opacity="0.2" />
    <circle cx="220" cy="590" r="80" fill="#0ea5e9" opacity="0.18" />
    <circle cx="420" cy="560" r="90" fill="#60a5fa" opacity="0.2" />
  </g>
  <text x="200" y="315" fill="#0f172a" font-family="'Inter', sans-serif" font-size="28" font-weight="600">Loyalists</text>
  <text x="350" y="380" fill="#0f172a" font-size="28" font-weight="600" font-family="'Inter', sans-serif">Enthusiasts</text>
  <text x="270" y="495" fill="#0f172a" font-size="24" font-family="'Inter', sans-serif">Value seekers</text>
  <g opacity="0.8">
    <rect x="700" y="230" width="160" height="80" rx="18" fill="#0ea5e9" />
    <rect x="880" y="230" width="160" height="80" rx="18" fill="#38bdf8" />
    <rect x="1060" y="230" width="160" height="80" rx="18" fill="#bae6fd" />
    <text x="720" y="280" fill="white" font-size="24" font-family="'Inter', sans-serif" font-weight="600">Risk: 0.72</text>
    <text x="900" y="280" fill="white" font-size="24" font-family="'Inter', sans-serif" font-weight="600">Risk: 0.41</text>
    <text x="1085" y="280" fill="#1f2937" font-size="24" font-family="'Inter', sans-serif" font-weight="600">Risk: 0.18</text>
  </g>
  <path d="M720 560C780 520 860 500 920 520C960 534 1000 560 1040 574C1120 602 1200 570 1240 548" stroke="#2563eb" stroke-width="14" stroke-linecap="round" fill="none" />
  <path d="M720 620C780 600 860 600 920 620C980 640 1040 690 1100 700C1160 710 1220 680 1240 660" stroke="#38bdf8" stroke-width="14" stroke-dasharray="20 16" stroke-linecap="round" fill="none" />
  <text x="700" y="540" fill="#0f172a" font-family="'Inter', sans-serif" font-size="28" font-weight="600">Retention outlook</text>
  <text x="700" y="700" fill="#64748b" font-family="'Inter', sans-serif" font-size="20">Alerts fire when cohort churn risk deviates from baseline by 12%</text>
</svg>
