<svg width="1400" height="900" viewBox="0 0 1400 900" fill="none" xmlns="http://www.w3.org/2000/svg">
  <rect width="1400" height="900" rx="48" fill="#f8fafc" />
  <rect x="60" y="60" width="1280" height="780" rx="40" fill="white" />
  <rect x="100" y="110" width="300" height="40" rx="20" fill="#2563eb" opacity="0.12" />
  <rect x="460" y="110" width="220" height="40" rx="20" fill="#2563eb" opacity="0.08" />
  <rect x="720" y="110" width="180" height="40" rx="20" fill="#2563eb" opacity="0.08" />
  <rect x="100" y="190" width="580" height="340" rx="32" fill="#eff6ff" />
  <rect x="720" y="190" width="520" height="340" rx="32" fill="#e0f2fe" />
  <rect x="100" y="560" width="1140" height="220" rx="32" fill="#f1f5f9" />
  <g opacity="0.8">
    <rect x="150" y="250" width="80" height="180" rx="16" fill="#2563eb" />
    <rect x="250" y="210" width="80" height="220" rx="16" fill="#38bdf8" />
    <rect x="350" y="280" width="80" height="150" rx="16" fill="#0ea5e9" />
    <rect x="450" y="240" width="80" height="190" rx="16" fill="#1d4ed8" />
  </g>
  <g opacity="0.85">
    <path d="M780 480C820 430 900 330 960 310C1020 290 1100 330 1180 350" stroke="#2563eb" stroke-width="18" stroke-linecap="round" fill="none" />
    <circle cx="780" cy="480" r="14" fill="#2563eb" />
    <circle cx="960" cy="310" r="14" fill="#2563eb" />
    <circle cx="1180" cy="350" r="14" fill="#2563eb" />
  </g>
  <g opacity="0.6">
    <path d="M780 520C830 500 890 450 960 440C1030 430 1100 470 1180 500" stroke="#38bdf8" stroke-width="14" stroke-dasharray="18 16" stroke-linecap="round" fill="none" />
  </g>
  <g opacity="0.5">
    <rect x="160" y="620" width="120" height="60" rx="20" fill="#cbd5f5" />
    <rect x="310" y="620" width="120" height="60" rx="20" fill="#dbeafe" />
    <rect x="460" y="620" width="120" height="60" rx="20" fill="#fee2e2" />
    <rect x="610" y="620" width="120" height="60" rx="20" fill="#d9f99d" />
    <rect x="760" y="620" width="120" height="60" rx="20" fill="#f5d0fe" />
  </g>
  <text x="140" y="690" fill="#1f2937" font-family="'Inter', sans-serif" font-size="28" font-weight="600">Scenario planner</text>
  <text x="140" y="730" fill="#64748b" font-family="'Inter', sans-serif" font-size="20">Adjust spend sliders to simulate incremental revenue</text>
</svg>
