<svg width="1400" height="900" viewBox="0 0 1400 900" fill="none" xmlns="http://www.w3.org/2000/svg">
  <rect width="1400" height="900" rx="48" fill="#f8fafc" />
  <rect x="60" y="60" width="1280" height="780" rx="40" fill="white" />
  <rect x="110" y="120" width="260" height="36" rx="18" fill="#1d4ed8" opacity="0.18" />
  <rect x="390" y="120" width="200" height="36" rx="18" fill="#1d4ed8" opacity="0.12" />
  <rect x="110" y="200" width="1180" height="260" rx="32" fill="#eff6ff" />
  <rect x="110" y="500" width="520" height="300" rx="32" fill="#e0e7ff" />
  <rect x="670" y="500" width="620" height="300" rx="32" fill="#f1f5f9" />
  <g opacity="0.9">
    <rect x="160" y="240" width="180" height="160" rx="24" fill="white" />
    <text x="190" y="310" fill="#1d4ed8" font-family="'Inter', sans-serif" font-size="52" font-weight="700">A</text>
    <text x="190" y="360" fill="#94a3b8" font-family="'Inter', sans-serif" font-size="18">Control</text>
    <rect x="380" y="240" width="180" height="160" rx="24" fill="#1e3a8a" />
    <text x="410" y="310" fill="white" font-family="'Inter', sans-serif" font-size="52" font-weight="700">B</text>
    <text x="410" y="360" fill="#cbd5f5" font-family="'Inter', sans-serif" font-size="18">Variant</text>
    <rect x="620" y="240" width="600" height="160" rx="24" fill="#1d4ed8" opacity="0.1" />
    <text x="650" y="305" fill="#1f2937" font-family="'Inter', sans-serif" font-size="24" font-weight="600">Lift: +6.8%  |  Power: 92%  |  Decision: Ship 🟢</text>
  </g>
  <g opacity="0.85">
    <path d="M700 560C760 540 820 520 880 520C940 520 1000 540 1060 560C1120 580 1180 600 1240 590" stroke="#2563eb" stroke-width="16" stroke-linecap="round" fill="none" />
    <path d="M700 620C760 630 820 650 880 640C940 630 1000 580 1060 560" stroke="#38bdf8" stroke-width="16" stroke-dasharray="20 16" stroke-linecap="round" fill="none" />
  </g>
  <g opacity="0.7">
    <rect x="180" y="550" width="120" height="180" rx="24" fill="#1e40af" />
    <rect x="330" y="520" width="120" height="210" rx="24" fill="#2563eb" />
    <rect x="480" y="590" width="120" height="140" rx="24" fill="#38bdf8" />
  </g>
  <text x="160" y="720" fill="#0f172a" font-family="'Inter', sans-serif" font-size="28" font-weight="600">Experiment pipeline</text>
  <text x="160" y="760" fill="#64748b" font-family="'Inter', sans-serif" font-size="20">Templates auto-generate insight briefs for product reviews</text>
</svg>
